<svg xmlns="http://www.w3.org/2000/svg" viewBox="0 0 646.425 515" width="646.425" height="515" style="--bg:#ffffff;--fg:#1f2328;--line:#d1d9e0;--accent:#0969da;--muted:#59636e;background:var(--bg)">
<style>
  @import url('https://fonts.googleapis.com/css2?family=Inter:wght@400;500;600;700&amp;display=swap');
  text { font-family: 'Inter', system-ui, sans-serif; }
  svg {
    /* Derived from --bg and --fg (overridable via --line, --accent, etc.) */
    --_text:          var(--fg);
    --_text-sec:      var(--muted, color-mix(in srgb, var(--fg) 60%, var(--bg)));
    --_text-muted:    var(--muted, color-mix(in srgb, var(--fg) 40%, var(--bg)));
    --_text-faint:    color-mix(in srgb, var(--fg) 25%, var(--bg));
    --_line:          var(--line, color-mix(in srgb, var(--fg) 30%, var(--bg)));
    --_arrow:         var(--accent, color-mix(in srgb, var(--fg) 50%, var(--bg)));
    --_node-fill:     var(--surface, color-mix(in srgb, var(--fg) 3%, var(--bg)));
    --_node-stroke:   var(--border, color-mix(in srgb, var(--fg) 20%, var(--bg)));
    --_group-fill:    var(--bg);
    --_group-hdr:     color-mix(in srgb, var(--fg) 5%, var(--bg));
    --_inner-stroke:  color-mix(in srgb, var(--fg) 12%, var(--bg));
    --_key-badge:     color-mix(in srgb, var(--fg) 10%, var(--bg));
  }
</style>
<defs>
  <marker id="arrowhead" markerWidth="8" markerHeight="4.8" refX="8" refY="2.4" orient="auto">
    <polygon points="0 0, 8 2.4, 0 4.8" fill="var(--_arrow)" />
  </marker>
  <marker id="arrowhead-start" markerWidth="8" markerHeight="4.8" refX="0" refY="2.4" orient="auto-start-reverse">
    <polygon points="8 0, 0 2.4, 8 4.8" fill="var(--_arrow)" />
  </marker>
</defs>
<rect x="61.625" y="40" width="507.13750000000005" height="123" rx="0" ry="0" fill="var(--_group-fill)" stroke="var(--_node-stroke)" stroke-width="1" />
<rect x="61.625" y="40" width="507.13750000000005" height="28" rx="0" ry="0" fill="var(--_group-hdr)" stroke="var(--_node-stroke)" stroke-width="1" />
<text x="73.625" y="54" dy="0.35em" font-size="12" font-weight="600" fill="var(--_text-sec)">&quot;Velocity Models&quot;</text>
<rect x="47.14999999999998" y="207" width="538.2125" height="112" rx="0" ry="0" fill="var(--_group-fill)" stroke="var(--_node-stroke)" stroke-width="1" />
<rect x="47.14999999999998" y="207" width="538.2125" height="28" rx="0" ry="0" fill="var(--_group-hdr)" stroke="var(--_node-stroke)" stroke-width="1" />
<text x="59.14999999999998" y="221" dy="0.35em" font-size="12" font-weight="600" fill="var(--_text-sec)">&quot;Analysis Methods&quot;</text>
<rect x="40" y="363" width="548.9375" height="112" rx="0" ry="0" fill="var(--_group-fill)" stroke="var(--_node-stroke)" stroke-width="1" />
<rect x="40" y="363" width="548.9375" height="28" rx="0" ry="0" fill="var(--_group-hdr)" stroke="var(--_node-stroke)" stroke-width="1" />
<text x="52" y="377" dy="0.35em" font-size="12" font-weight="600" fill="var(--_text-sec)">&quot;Results&quot;</text>
<polyline points="221.46249999999998,143 221.46249999999998,163 107.32499999999993,163 107.32499999999993,281 69.15,281" fill="none" stroke="var(--_line)" stroke-width="0.75" marker-end="url(#arrowhead)" />
<polyline points="327.5125,143 327.5125,163 170.35000000000002,163 170.35000000000002,281 194.1,281" fill="none" stroke="var(--_line)" stroke-width="0.75" marker-end="url(#arrowhead)" />
<polyline points="433.5625,143 433.5625,163 211.46249999999998,163 211.46249999999998,281 194.1,281" fill="none" stroke="var(--_line)" stroke-width="0.75" marker-end="url(#arrowhead)" />
<polyline points="131.625,299 131.625,419" fill="none" stroke="var(--_line)" stroke-width="0.75" marker-end="url(#arrowhead)" />
<polyline points="221.46249999999998,143 221.46249999999998,163 231.46249999999998,163 231.46249999999998,281 275.7625,281" fill="none" stroke="var(--_line)" stroke-width="0.75" marker-end="url(#arrowhead)" />
<polyline points="327.5125,143 327.5125,163 330.025,163 330.025,281 379.2625,281" fill="none" stroke="var(--_line)" stroke-width="0.75" marker-end="url(#arrowhead)" />
<polyline points="433.5625,143 433.5625,163 418.92499999999995,163 418.92499999999995,281 379.2625,281" fill="none" stroke="var(--_line)" stroke-width="0.75" marker-end="url(#arrowhead)" />
<polyline points="327.5125,299 327.5125,419" fill="none" stroke="var(--_line)" stroke-width="0.75" marker-end="url(#arrowhead)" />
<polyline points="221.46249999999998,143 221.46249999999998,163 438.92499999999995,163 438.92499999999995,281 459.86249999999995,281" fill="none" stroke="var(--_line)" stroke-width="0.75" marker-end="url(#arrowhead)" />
<polyline points="327.5125,143 327.5125,163 475.73749999999995,163 475.73749999999995,281 459.86249999999995,281" fill="none" stroke="var(--_line)" stroke-width="0.75" marker-end="url(#arrowhead)" />
<polyline points="433.5625,143 433.5625,163 538.7624999999999,163 538.7624999999999,281 563.3625,281" fill="none" stroke="var(--_line)" stroke-width="0.75" marker-end="url(#arrowhead)" />
<polyline points="511.61249999999995,299 511.61249999999995,419" fill="none" stroke="var(--_line)" stroke-width="0.75" marker-end="url(#arrowhead)" />
<rect x="180.43749999999997" y="103" width="82.05000000000001" height="33" fill="var(--_node-fill)" stroke="none" />
<line x1="180.43749999999997" y1="103" x2="180.43749999999997" y2="136" stroke="var(--_node-stroke)" stroke-width="0.75" />
<line x1="262.48749999999995" y1="103" x2="262.48749999999995" y2="136" stroke="var(--_node-stroke)" stroke-width="0.75" />
<ellipse cx="221.46249999999998" cy="136" rx="41.025000000000006" ry="7" fill="var(--_node-fill)" stroke="var(--_node-stroke)" stroke-width="0.75" />
<ellipse cx="221.46249999999998" cy="103" rx="41.025000000000006" ry="7" fill="var(--_node-fill)" stroke="var(--_node-stroke)" stroke-width="0.75" />
<rect x="286.48749999999995" y="103" width="82.05000000000001" height="33" fill="var(--_node-fill)" stroke="none" />
<line x1="286.48749999999995" y1="103" x2="286.48749999999995" y2="136" stroke="var(--_node-stroke)" stroke-width="0.75" />
<line x1="368.53749999999997" y1="103" x2="368.53749999999997" y2="136" stroke="var(--_node-stroke)" stroke-width="0.75" />
<ellipse cx="327.51249999999993" cy="136" rx="41.025000000000006" ry="7" fill="var(--_node-fill)" stroke="var(--_node-stroke)" stroke-width="0.75" />
<ellipse cx="327.51249999999993" cy="103" rx="41.025000000000006" ry="7" fill="var(--_node-fill)" stroke="var(--_node-stroke)" stroke-width="0.75" />
<rect x="392.5375" y="103" width="82.05000000000001" height="33" fill="var(--_node-fill)" stroke="none" />
<line x1="392.5375" y1="103" x2="392.5375" y2="136" stroke="var(--_node-stroke)" stroke-width="0.75" />
<line x1="474.58750000000003" y1="103" x2="474.58750000000003" y2="136" stroke="var(--_node-stroke)" stroke-width="0.75" />
<ellipse cx="433.5625" cy="136" rx="41.025000000000006" ry="7" fill="var(--_node-fill)" stroke="var(--_node-stroke)" stroke-width="0.75" />
<ellipse cx="433.5625" cy="103" rx="41.025000000000006" ry="7" fill="var(--_node-fill)" stroke="var(--_node-stroke)" stroke-width="0.75" />
<rect x="69.15" y="263" width="124.95" height="36" rx="18" ry="18" fill="var(--_node-fill)" stroke="var(--_node-stroke)" stroke-width="0.75" />
<rect x="275.7625" y="263" width="103.5" height="36" rx="18" ry="18" fill="var(--_node-fill)" stroke="var(--_node-stroke)" stroke-width="0.75" />
<rect x="459.86249999999995" y="263" width="103.5" height="36" rx="18" ry="18" fill="var(--_node-fill)" stroke="var(--_node-stroke)" stroke-width="0.75" />
<rect x="62" y="419" width="139.25" height="36" rx="18" ry="18" fill="var(--_node-fill)" stroke="var(--_node-stroke)" stroke-width="0.75" />
<rect x="261.4625" y="419" width="132.10000000000002" height="36" rx="18" ry="18" fill="var(--_node-fill)" stroke="var(--_node-stroke)" stroke-width="0.75" />
<rect x="456.28749999999997" y="419" width="110.65" height="36" rx="18" ry="18" fill="var(--_node-fill)" stroke="var(--_node-stroke)" stroke-width="0.75" />
<text x="221.46249999999998" y="119.5" text-anchor="middle" dy="0.35em" font-size="13" font-weight="500" fill="var(--_text)">Model 1</text>
<text x="327.51249999999993" y="119.5" text-anchor="middle" dy="0.35em" font-size="13" font-weight="500" fill="var(--_text)">Model 2</text>
<text x="433.5625" y="119.5" text-anchor="middle" dy="0.35em" font-size="13" font-weight="500" fill="var(--_text)">Model N</text>
<text x="131.625" y="281" text-anchor="middle" dy="0.35em" font-size="13" font-weight="500" fill="var(--_text)">Model Compare</text>
<text x="327.5125" y="281" text-anchor="middle" dy="0.35em" font-size="13" font-weight="500" fill="var(--_text)">Clustering</text>
<text x="511.61249999999995" y="281" text-anchor="middle" dy="0.35em" font-size="13" font-weight="500" fill="var(--_text)">Similarity</text>
<text x="131.625" y="437" text-anchor="middle" dy="0.35em" font-size="13" font-weight="500" fill="var(--_text)">Difference Maps</text>
<text x="327.5125" y="437" text-anchor="middle" dy="0.35em" font-size="13" font-weight="500" fill="var(--_text)">Cluster Labels</text>
<text x="511.61249999999995" y="437" text-anchor="middle" dy="0.35em" font-size="13" font-weight="500" fill="var(--_text)">SSIM Matrix</text>
</svg>