<svg xmlns="http://www.w3.org/2000/svg" viewBox="0 0 1278.5 1128" width="1278.5" height="1128" style="--bg:#ffffff;--fg:#1f2328;--line:#d1d9e0;--accent:#0969da;--muted:#59636e;background:var(--bg)">
<style>
  @import url('https://fonts.googleapis.com/css2?family=Inter:wght@400;500;600;700&amp;display=swap');
  text { font-family: 'Inter', system-ui, sans-serif; }
  svg {
    /* Derived from --bg and --fg (overridable via --line, --accent, etc.) */
    --_text:          var(--fg);
    --_text-sec:      var(--muted, color-mix(in srgb, var(--fg) 60%, var(--bg)));
    --_text-muted:    var(--muted, color-mix(in srgb, var(--fg) 40%, var(--bg)));
    --_text-faint:    color-mix(in srgb, var(--fg) 25%, var(--bg));
    --_line:          var(--line, color-mix(in srgb, var(--fg) 30%, var(--bg)));
    --_arrow:         var(--accent, color-mix(in srgb, var(--fg) 50%, var(--bg)));
    --_node-fill:     var(--surface, color-mix(in srgb, var(--fg) 3%, var(--bg)));
    --_node-stroke:   var(--border, color-mix(in srgb, var(--fg) 20%, var(--bg)));
    --_group-fill:    var(--bg);
    --_group-hdr:     color-mix(in srgb, var(--fg) 5%, var(--bg));
    --_inner-stroke:  color-mix(in srgb, var(--fg) 12%, var(--bg));
    --_key-badge:     color-mix(in srgb, var(--fg) 10%, var(--bg));
  }
</style>
<defs>
  <marker id="arrowhead" markerWidth="8" markerHeight="4.8" refX="8" refY="2.4" orient="auto">
    <polygon points="0 0, 8 2.4, 0 4.8" fill="var(--_arrow)" />
  </marker>
  <marker id="arrowhead-start" markerWidth="8" markerHeight="4.8" refX="0" refY="2.4" orient="auto-start-reverse">
    <polygon points="8 0, 0 2.4, 8 4.8" fill="var(--_arrow)" />
  </marker>
</defs>
<rect x="40" y="40" width="367.95" height="112" rx="0" ry="0" fill="var(--_group-fill)" stroke="var(--_node-stroke)" stroke-width="1" />
<rect x="40" y="40" width="367.95" height="28" rx="0" ry="0" fill="var(--_group-hdr)" stroke="var(--_node-stroke)" stroke-width="1" />
<text x="52" y="54" dy="0.35em" font-size="12" font-weight="600" fill="var(--_text-sec)">&quot;Preprocessing&quot;</text>
<rect x="199.67499999999995" y="196" width="403.70000000000005" height="112" rx="0" ry="0" fill="var(--_group-fill)" stroke="var(--_node-stroke)" stroke-width="1" />
<rect x="199.67499999999995" y="196" width="403.70000000000005" height="28" rx="0" ry="0" fill="var(--_group-hdr)" stroke="var(--_node-stroke)" stroke-width="1" />
<text x="211.67499999999995" y="210" dy="0.35em" font-size="12" font-weight="600" fill="var(--_text-sec)">&quot;Validation&quot;</text>
<rect x="438" y="352" width="423.95000000000005" height="112" rx="0" ry="0" fill="var(--_group-fill)" stroke="var(--_node-stroke)" stroke-width="1" />
<rect x="438" y="352" width="423.95000000000005" height="28" rx="0" ry="0" fill="var(--_group-hdr)" stroke="var(--_node-stroke)" stroke-width="1" />
<text x="450" y="366" dy="0.35em" font-size="12" font-weight="600" fill="var(--_text-sec)">&quot;Hyperparameter&quot;</text>
<rect x="678.7" y="508" width="382.25" height="112" rx="0" ry="0" fill="var(--_group-fill)" stroke="var(--_node-stroke)" stroke-width="1" />
<rect x="678.7" y="508" width="382.25" height="28" rx="0" ry="0" fill="var(--_group-hdr)" stroke="var(--_node-stroke)" stroke-width="1" />
<text x="690.7" y="522" dy="0.35em" font-size="12" font-weight="600" fill="var(--_text-sec)">&quot;2D Transform&quot;</text>
<rect x="877.6999999999999" y="664" width="360.79999999999995" height="112" rx="0" ry="0" fill="var(--_group-fill)" stroke="var(--_node-stroke)" stroke-width="1" />
<rect x="877.6999999999999" y="664" width="360.79999999999995" height="28" rx="0" ry="0" fill="var(--_group-hdr)" stroke="var(--_node-stroke)" stroke-width="1" />
<text x="889.6999999999999" y="678" dy="0.35em" font-size="12" font-weight="600" fill="var(--_text-sec)">&quot;Full Slice&quot;</text>
<rect x="1033.8000000000002" y="820" width="204.70000000000005" height="112" rx="0" ry="0" fill="var(--_group-fill)" stroke="var(--_node-stroke)" stroke-width="1" />
<rect x="1033.8000000000002" y="820" width="204.70000000000005" height="28" rx="0" ry="0" fill="var(--_group-hdr)" stroke="var(--_node-stroke)" stroke-width="1" />
<text x="1045.8000000000002" y="834" dy="0.35em" font-size="12" font-weight="600" fill="var(--_text-sec)">&quot;3D Transform&quot;</text>
<rect x="1048.1000000000001" y="976" width="176.0999999999999" height="112" rx="0" ry="0" fill="var(--_group-fill)" stroke="var(--_node-stroke)" stroke-width="1" />
<rect x="1048.1000000000001" y="976" width="176.0999999999999" height="28" rx="0" ry="0" fill="var(--_group-hdr)" stroke="var(--_node-stroke)" stroke-width="1" />
<text x="1060.1000000000001" y="990" dy="0.35em" font-size="12" font-weight="600" fill="var(--_text-sec)">&quot;Output&quot;</text>
<polyline points="309.17499999999995,132 309.17499999999995,252" fill="none" stroke="var(--_line)" stroke-width="0.75" marker-end="url(#arrowhead)" />
<polyline points="501.025,288 501.025,408" fill="none" stroke="var(--_line)" stroke-width="0.75" marker-end="url(#arrowhead)" />
<polyline points="784.625,444 784.625,564" fill="none" stroke="var(--_line)" stroke-width="0.75" marker-end="url(#arrowhead)" />
<polyline points="965.75,600 965.75,720" fill="none" stroke="var(--_line)" stroke-width="0.75" marker-end="url(#arrowhead)" />
<polyline points="1136.15,756 1136.15,876" fill="none" stroke="var(--_line)" stroke-width="0.75" marker-end="url(#arrowhead)" />
<polyline points="1136.15,912 1136.15,1032" fill="none" stroke="var(--_line)" stroke-width="0.75" marker-end="url(#arrowhead)" />
<rect x="62.000000000000014" y="96" width="146.4" height="36" rx="18" ry="18" fill="var(--_node-fill)" stroke="var(--_node-stroke)" stroke-width="0.75" />
<rect x="232.39999999999995" y="96" width="153.55" height="36" rx="18" ry="18" fill="var(--_node-fill)" stroke="var(--_node-stroke)" stroke-width="0.75" />
<rect x="221.67499999999995" y="252" width="175" height="36" rx="18" ry="18" fill="var(--_node-fill)" stroke="var(--_node-stroke)" stroke-width="0.75" />
<rect x="420.67499999999995" y="252" width="160.70000000000002" height="36" rx="18" ry="18" fill="var(--_node-fill)" stroke="var(--_node-stroke)" stroke-width="0.75" />
<rect x="460" y="408" width="82.05000000000001" height="36" rx="18" ry="18" fill="var(--_node-fill)" stroke="var(--_node-stroke)" stroke-width="0.75" />
<rect x="566.05" y="408" width="139.25" height="36" rx="18" ry="18" fill="var(--_node-fill)" stroke="var(--_node-stroke)" stroke-width="0.75" />
<rect x="729.3" y="408" width="110.65" height="36" rx="18" ry="18" fill="var(--_node-fill)" stroke="var(--_node-stroke)" stroke-width="0.75" />
<rect x="700.7" y="564" width="167.85000000000002" height="36" rx="18" ry="18" fill="var(--_node-fill)" stroke="var(--_node-stroke)" stroke-width="0.75" />
<rect x="892.55" y="564" width="146.4" height="36" rx="18" ry="18" fill="var(--_node-fill)" stroke="var(--_node-stroke)" stroke-width="0.75" />
<rect x="899.7" y="720" width="132.10000000000002" height="36" rx="18" ry="18" fill="var(--_node-fill)" stroke="var(--_node-stroke)" stroke-width="0.75" />
<rect x="1055.8000000000002" y="720" width="160.70000000000002" height="36" rx="18" ry="18" fill="var(--_node-fill)" stroke="var(--_node-stroke)" stroke-width="0.75" />
<rect x="1055.8000000000002" y="876" width="160.70000000000002" height="36" rx="18" ry="18" fill="var(--_node-fill)" stroke="var(--_node-stroke)" stroke-width="0.75" />
<rect x="1070.1000000000001" y="1032" width="132.10000000000002" height="36" rx="18" ry="18" fill="var(--_node-fill)" stroke="var(--_node-stroke)" stroke-width="0.75" />
<text x="135.20000000000002" y="114" text-anchor="middle" dy="0.35em" font-size="13" font-weight="500" fill="var(--_text)">Patch extraction</text>
<text x="309.17499999999995" y="114" text-anchor="middle" dy="0.35em" font-size="13" font-weight="500" fill="var(--_text)">Preserve features</text>
<text x="309.17499999999995" y="270" text-anchor="middle" dy="0.35em" font-size="13" font-weight="500" fill="var(--_text)">Reconstruction error</text>
<text x="501.025" y="270" text-anchor="middle" dy="0.35em" font-size="13" font-weight="500" fill="var(--_text)">Target under 3 pct</text>
<text x="501.025" y="426" text-anchor="middle" dy="0.35em" font-size="13" font-weight="500" fill="var(--_text)">K 15-30</text>
<text x="635.675" y="426" text-anchor="middle" dy="0.35em" font-size="13" font-weight="500" fill="var(--_text)">lambda 0.05-0.2</text>
<text x="784.625" y="426" text-anchor="middle" dy="0.35em" font-size="13" font-weight="500" fill="var(--_text)">Grid search</text>
<text x="784.625" y="582" text-anchor="middle" dy="0.35em" font-size="13" font-weight="500" fill="var(--_text)">Dictionary training</text>
<text x="965.75" y="582" text-anchor="middle" dy="0.35em" font-size="13" font-weight="500" fill="var(--_text)">Patch validation</text>
<text x="965.75" y="738" text-anchor="middle" dy="0.35em" font-size="13" font-weight="500" fill="var(--_text)">Sliding window</text>
<text x="1136.15" y="738" text-anchor="middle" dy="0.35em" font-size="13" font-weight="500" fill="var(--_text)">Gaussian stitching</text>
<text x="1136.15" y="894" text-anchor="middle" dy="0.35em" font-size="13" font-weight="500" fill="var(--_text)">Depth correlations</text>
<text x="1136.15" y="1050" text-anchor="middle" dy="0.35em" font-size="13" font-weight="500" fill="var(--_text)">Enhanced Model</text>
</svg>